<svg width="24" height="24" viewBox="0 0 24 24" fill="none" xmlns="http://www.w3.org/2000/svg">
<path d="M20.6328 9.5H17.3125V5.71094C17.3125 4.95707 16.6992 4.34375 15.9453 4.34375H3.36719C2.61332 4.34375 2 4.95707 2 5.71094V16.7266C2 18.342 3.31426 19.6562 4.92969 19.6562H19.0703C20.6857 19.6562 22 18.342 22 16.7266V10.8672C22 10.1133 21.3867 9.5 20.6328 9.5ZM19.0703 18.4844C18.1011 18.4844 17.3125 17.6958 17.3125 16.7266V10.6719H20.6328C20.7405 10.6719 20.8281 10.7595 20.8281 10.8672V16.7266C20.8281 17.6958 20.0396 18.4844 19.0703 18.4844ZM3.17188 16.7266V5.71094C3.17188 5.60324 3.25949 5.51562 3.36719 5.51562H15.9453C16.053 5.51562 16.1406 5.60324 16.1406 5.71094V10.0859V16.7266C16.1406 17.3856 16.3595 17.9944 16.7282 18.4844H4.92969C3.96043 18.4844 3.17188 17.6958 3.17188 16.7266Z" fill="#03502F"/>
<path d="M14.4219 9.24219H10.0469C9.72328 9.24219 9.46094 9.50453 9.46094 9.82812C9.46094 10.1517 9.72328 10.4141 10.0469 10.4141H14.4219C14.7455 10.4141 15.0078 10.1517 15.0078 9.82812C15.0078 9.50453 14.7455 9.24219 14.4219 9.24219Z" fill="#03502F"/>
<path d="M14.4219 11.5859H10.0469C9.72328 11.5859 9.46094 11.8483 9.46094 12.1719C9.46094 12.4955 9.72328 12.7578 10.0469 12.7578H14.4219C14.7455 12.7578 15.0078 12.4955 15.0078 12.1719C15.0078 11.8483 14.7455 11.5859 14.4219 11.5859Z" fill="#03502F"/>
<path d="M14.4219 13.9297H5.35938C5.03578 13.9297 4.77344 14.192 4.77344 14.5156C4.77344 14.8392 5.03578 15.1016 5.35938 15.1016H14.4219C14.7455 15.1016 15.0078 14.8392 15.0078 14.5156C15.0078 14.192 14.7455 13.9297 14.4219 13.9297Z" fill="#03502F"/>
<path d="M5.35938 12.7578H7.70312C8.02672 12.7578 8.28906 12.4955 8.28906 12.1719V9.82812C8.28906 9.50453 8.02672 9.24219 7.70312 9.24219H5.35938C5.03578 9.24219 4.77344 9.50453 4.77344 9.82812V12.1719C4.77344 12.4955 5.03578 12.7578 5.35938 12.7578ZM5.94531 10.4141H7.11719V11.5859H5.94531V10.4141Z" fill="#03502F"/>
</svg>
