<svg width="24" height="24" viewBox="0 0 24 24" fill="none" xmlns="http://www.w3.org/2000/svg">
<g clip-path="url(#clip0_4603_7723)">
<path d="M4.57329 7.10797C4.67279 7.21326 4.81118 7.27284 4.95597 7.27284H4.95829C5.10388 7.27217 5.24277 7.21129 5.34185 7.10456L7.97247 4.27172C8.17041 4.05861 8.15806 3.72535 7.94495 3.52745C7.73184 3.3295 7.39859 3.3419 7.20071 3.55501L4.95257 5.97596L3.97037 4.93688C3.77063 4.72549 3.43728 4.71609 3.22592 4.91592C3.01453 5.11573 3.00516 5.44905 3.20496 5.6604L4.57329 7.10797Z" fill="#737375"/>
<path d="M4.57329 13.4249C4.67279 13.5301 4.81118 13.5897 4.95597 13.5897H4.95829C5.10388 13.5891 5.24277 13.5282 5.34185 13.4215L7.97251 10.5886C8.17041 10.3755 8.15806 10.0422 7.94495 9.84434C7.73177 9.6464 7.39859 9.65879 7.20071 9.8719L4.9526 12.2929L3.97037 11.2538C3.77063 11.0424 3.43728 11.033 3.22592 11.2328C3.01453 11.4326 3.00516 11.7659 3.20496 11.9773L4.57329 13.4249Z" fill="#737375"/>
<path d="M4.57329 19.7212C4.67279 19.8265 4.81118 19.8861 4.95597 19.8861H4.95829C5.10388 19.8855 5.24277 19.8246 5.34185 19.7178L7.97251 16.885C8.17041 16.6719 8.15806 16.3386 7.94495 16.1407C7.73177 15.9428 7.39859 15.9552 7.20071 16.1683L4.9526 18.5892L3.97037 17.5502C3.77063 17.3388 3.43728 17.3294 3.22592 17.5292C3.01453 17.729 3.00516 18.0623 3.20496 18.2737L4.57329 19.7212Z" fill="#737375"/>
<path d="M9.89317 4.83451H20.4767C21.1747 4.8086 21.1741 3.80691 20.4767 3.78125H9.89317C9.19518 3.80713 9.1957 4.80885 9.89317 4.83451Z" fill="#737375"/>
<path d="M9.89317 6.87821H17.054C17.752 6.8523 17.7515 5.85062 17.054 5.82495H9.89317C9.19518 5.85086 9.1957 6.85258 9.89317 6.87821Z" fill="#737375"/>
<path d="M20.4767 10.0981H9.89317C9.19518 10.1241 9.1957 11.1257 9.89317 11.1514H20.4767C21.1747 11.1255 21.1741 10.1238 20.4767 10.0981Z" fill="#737375"/>
<path d="M9.89317 13.1951H17.054C17.752 13.1692 17.7515 12.1675 17.054 12.1418H9.89317C9.19518 12.1678 9.1957 13.1694 9.89317 13.1951Z" fill="#737375"/>
<path d="M20.4767 16.4148H9.89317C9.19518 16.4407 9.1957 17.4424 9.89317 17.4681H20.4767C21.1747 17.4421 21.1741 16.4405 20.4767 16.4148Z" fill="#737375"/>
<path d="M17.054 18.4585H9.89317C9.19518 18.4844 9.1957 19.4861 9.89317 19.5118H17.054C17.752 19.4858 17.7515 18.4842 17.054 18.4585Z" fill="#737375"/>
</g>
<defs>
<clipPath id="clip0_4603_7723">
<rect width="18" height="18" fill="white" transform="translate(3 3)"/>
</clipPath>
</defs>
</svg>
