<svg width="24" height="24" viewBox="0 0 24 24" fill="none" xmlns="http://www.w3.org/2000/svg">
<g clip-path="url(#clip0_4603_7739)">
<path d="M21.824 8.51339L18.445 5.20515C17.6583 4.43476 16.6185 4.0105 15.5173 4.0105H15.228C15.1978 3.98574 15.1647 3.96363 15.1288 3.94472L14.244 3.47898C13.9576 3.32816 13.6034 3.4382 13.4526 3.72453C13.4045 3.81589 13.3832 3.91413 13.3854 4.01054H10.6145C10.6168 3.91417 10.5955 3.81589 10.5474 3.72453C10.3967 3.43816 10.0422 3.3282 9.75595 3.47898L8.87122 3.94472C8.83532 3.96363 8.8022 3.98574 8.772 4.0105H8.48267C7.38149 4.0105 6.34169 4.43476 5.55493 5.20515L2.17603 8.51339C1.95064 8.73406 1.9404 9.09351 2.15278 9.32663L4.3622 11.7521C4.56782 11.9778 4.91232 12.0078 5.15388 11.821L6.52567 10.7599L6.6647 20.0114C6.6695 20.3316 6.9304 20.5885 7.25056 20.5885H16.7495C17.0697 20.5885 17.3306 20.3316 17.3354 20.0114L17.4744 10.7599L18.8462 11.821C19.0877 12.0078 19.4322 11.9778 19.6379 11.7521L21.8473 9.32663C22.0596 9.09351 22.0493 8.73406 21.824 8.51339ZM19.1355 10.5633L17.2646 9.11613C17.089 8.98027 16.8518 8.95538 16.6519 9.05167C16.4519 9.14792 16.3235 9.3489 16.3202 9.57081L16.1723 19.4167H7.82771L7.67978 9.57081C7.67646 9.3489 7.54806 9.14792 7.3481 9.05167C7.14821 8.95538 6.91099 8.98035 6.7354 9.11613L4.86442 10.5633L3.3997 8.95535L6.37474 6.04249C6.94122 5.48785 7.68982 5.18238 8.48263 5.18238H15.5173C16.3101 5.18238 17.0587 5.48785 17.6252 6.04249L20.6002 8.95531L19.1355 10.5633Z" fill="#737375"/>
</g>
<defs>
<clipPath id="clip0_4603_7739">
<rect width="20" height="20" fill="white" transform="translate(2 2)"/>
</clipPath>
</defs>
</svg>
