<svg width="24" height="24" viewBox="0 0 24 24" fill="none" xmlns="http://www.w3.org/2000/svg">
<g clip-path="url(#clip0_4603_7748)">
<path d="M12 3C7.02574 3 3 7.02528 3 12C3 16.9743 7.02528 21 12 21C16.9743 21 21 16.9747 21 12C21 7.02574 16.9747 3 12 3ZM12 19.8C7.69909 19.8 4.19999 16.3009 4.19999 12C4.19999 7.69905 7.69909 4.19999 12 4.19999C16.3009 4.19999 19.8 7.69909 19.8 12C19.8 16.3009 16.3009 19.8 12 19.8Z" fill="#737375"/>
<path d="M14.9762 8.22295L10.6056 10.3249C10.4829 10.3839 10.3839 10.4828 10.3249 10.6056L8.22301 14.9763C7.9779 15.486 8.51385 16.0223 9.02376 15.777L13.3945 13.6751C13.5172 13.6161 13.6161 13.5171 13.6751 13.3944L15.7771 9.0237C16.0221 8.51411 15.4864 7.97759 14.9762 8.22295ZM12.6848 12.6848L10.0463 13.9537L11.3152 11.3152L13.9537 10.0463L12.6848 12.6848Z" fill="#737375"/>
</g>
<defs>
<clipPath id="clip0_4603_7748">
<rect width="18" height="18" fill="white" transform="translate(3 3)"/>
</clipPath>
</defs>
</svg>
