<svg width="24" height="24" viewBox="0 0 24 24" fill="none" xmlns="http://www.w3.org/2000/svg">
<path d="M20.1818 7.09094H5.79346L8.48763 4.39672C8.80715 4.07725 8.80715 3.55917 8.48763 3.23965C8.16815 2.92012 7.65008 2.92012 7.33055 3.23965L3.23965 7.33055C2.92012 7.65003 2.92012 8.1681 3.23965 8.48763L7.33055 12.5785C7.49032 12.7383 7.69972 12.8182 7.90912 12.8182C8.11852 12.8182 8.32792 12.7383 8.48763 12.5785C8.80715 12.2591 8.80715 11.741 8.48763 11.4215L5.79346 8.7273H20.1818C20.6337 8.7273 21 8.36097 21 7.90912C21 7.45726 20.6337 7.09094 20.1818 7.09094Z" fill="#03502F"/>
<path d="M16.6694 11.4214C16.3499 11.1019 15.8319 11.1019 15.5123 11.4214C15.1928 11.7408 15.1928 12.2589 15.5123 12.5784L18.2066 15.2727H3.81818C3.36633 15.2727 3 15.639 3 16.0908C3 16.5427 3.36633 16.909 3.81818 16.909H18.2066L15.5124 19.6032C15.1929 19.9227 15.1929 20.4408 15.5124 20.7603C15.6721 20.92 15.8815 20.9999 16.0909 20.9999C16.3003 20.9999 16.5097 20.92 16.6694 20.7603L20.7603 16.6693C21.0798 16.3499 21.0798 15.8318 20.7603 15.5123L16.6694 11.4214Z" fill="#03502F"/>
</svg>
