<svg width="24" height="24" viewBox="0 0 24 24" fill="none" xmlns="http://www.w3.org/2000/svg">
<g clip-path="url(#clip0_4603_15250)">
<path d="M19.6742 2.6979L8.02346 9.42445C5.48388 10.8907 4.22944 13.6763 4.55857 16.3618C4.38065 16.422 4.20768 16.4989 4.0436 16.5936C2.70056 17.369 2.23875 19.0925 3.01415 20.4355C3.78956 21.7786 5.51305 22.2404 6.85609 21.465C7.01547 21.373 7.16269 21.2668 7.2984 21.1482C8.29037 21.9116 9.45067 22.3871 10.6938 22.5314C12.193 22.7056 13.701 22.3845 15.0547 21.6029C18.2228 19.7738 19.4131 15.862 17.9528 12.6254L21.9686 8.18756C22.5869 7.51068 22.6922 6.51894 22.2307 5.71967L20.6347 2.95524C20.4405 2.61897 20.0105 2.50374 19.6742 2.6979ZM6.26314 20.1768C5.57938 20.6588 4.6415 20.4417 4.232 19.7324C3.82344 19.0248 4.10055 18.1008 4.86875 17.7484C5.1614 18.6246 5.64741 19.4741 6.26314 20.1768ZM21.0129 6.42285C21.1665 6.68891 21.1333 7.01698 20.9281 7.24164L16.5894 12.0362C16.3896 12.257 16.3506 12.5797 16.492 12.8418C17.9225 15.4938 16.9623 18.8777 14.3516 20.3851C10.7672 22.4545 6.81418 20.2023 6.05288 16.7617C5.50364 14.3419 6.57814 11.8827 8.72658 10.6423L11.1623 9.23605L11.5138 9.84497C11.708 10.1813 12.138 10.2965 12.4743 10.1023C12.8106 9.90817 12.9258 9.47813 12.7317 9.14185L12.3801 8.53292L19.7684 4.26731L21.0129 6.42285Z" fill="#03502F"/>
<path d="M14.2322 13.1471C13.8959 13.3412 13.7806 13.7713 13.9748 14.1075C14.3496 14.7568 14.4488 15.5145 14.2541 16.2413C13.8513 17.7448 12.3155 18.6318 10.8117 18.2288C9.30809 17.8259 8.42118 16.2902 8.82414 14.7863C9.01884 14.0596 9.48363 13.4529 10.1329 13.0781C10.4692 12.8839 10.5844 12.4539 10.3902 12.1176C10.1961 11.7813 9.76603 11.6661 9.42974 11.8603C8.45522 12.4229 7.75773 13.3328 7.46576 14.4223C6.86176 16.6766 8.19299 18.983 10.4477 19.5871C12.7019 20.1912 15.0083 18.8599 15.6125 16.6052C15.9043 15.5157 15.7553 14.3789 15.1926 13.4044C14.9985 13.0681 14.5685 12.9529 14.2322 13.1471Z" fill="#03502F"/>
<path d="M8.25541 2.79529C7.91912 2.98944 7.80389 3.41949 7.99805 3.75577L8.70117 4.97362C8.89533 5.30991 9.32537 5.42514 9.66165 5.23098C9.99794 5.03682 10.1132 4.60678 9.91902 4.2705L9.21589 3.05265C9.02174 2.71636 8.5917 2.60113 8.25541 2.79529Z" fill="#03502F"/>
<path d="M13.146 1.83358C12.7709 1.73304 12.3853 1.95565 12.2848 2.33075L11.7701 4.25172C11.6696 4.62682 11.8922 5.01235 12.2673 5.11286C12.6423 5.21339 13.028 4.9908 13.1284 4.61568L13.6431 2.69471C13.7436 2.31961 13.521 1.93404 13.146 1.83358Z" fill="#03502F"/>
<path d="M7.75972 6.56705L5.83875 6.05232C5.46369 5.95179 5.07812 6.1744 4.97762 6.5495C4.87711 6.9246 5.09969 7.31013 5.47479 7.41064L7.39576 7.92536C7.77082 8.02589 8.15643 7.80326 8.2569 7.42818C8.35741 7.05308 8.1348 6.66751 7.75972 6.56705Z" fill="#03502F"/>
</g>
<defs>
<clipPath id="clip0_4603_15250">
<rect width="24" height="24" fill="white"/>
</clipPath>
</defs>
</svg>
