<svg width="24" height="24" viewBox="0 0 24 24" fill="none" xmlns="http://www.w3.org/2000/svg">
<g clip-path="url(#clip0_4603_11369)">
<path d="M4.10806 19.0869L2.17502 20.9974C1.94488 21.2248 1.9427 21.5958 2.17014 21.8259C2.39664 22.0551 2.76763 22.0592 2.9987 21.8308L4.93174 19.9204C5.16188 19.6929 5.16407 19.3219 4.93662 19.0918C4.70914 18.8616 4.33816 18.8594 4.10806 19.0869Z" fill="#03502F"/>
<path d="M6.8595 19.8278L5.68772 20.9996C5.45891 21.2284 5.45891 21.5994 5.68772 21.8282C5.91653 22.057 6.28747 22.057 6.51628 21.8282L7.68806 20.6564C7.91687 20.4276 7.91687 20.0566 7.68806 19.8278C7.45929 19.5991 7.08831 19.5991 6.8595 19.8278Z" fill="#03502F"/>
<path d="M3.00115 18.313L4.17292 17.1413C4.40173 16.9124 4.40173 16.5415 4.17292 16.3127C3.94415 16.0839 3.57317 16.0839 3.34436 16.3127L2.17258 17.4845C1.94377 17.7133 1.94377 18.0842 2.17258 18.313C2.40139 18.5418 2.77238 18.5418 3.00115 18.313Z" fill="#03502F"/>
<path d="M15.1114 2.35448C12.9911 2.90766 10.7895 4.21054 9.07113 5.92887C7.35273 7.64727 6.04991 9.84883 5.49674 11.9691C4.89263 14.2847 5.22654 16.2265 6.43704 17.437C7.64754 18.6475 9.5893 18.9814 11.9048 18.3773C14.025 17.8241 16.2266 16.5212 17.945 14.8028C19.6634 13.0845 20.9662 10.8829 21.5194 8.76264C22.1235 6.44716 21.7896 4.50534 20.5792 3.29491C19.3687 2.08447 17.4269 1.75044 15.1114 2.35448ZM18.9847 6.9019C18.1113 8.49952 16.6896 10.3366 15.0842 11.942C13.4786 13.5475 11.6417 14.9692 10.044 15.8426C8.38919 16.7472 7.49251 16.7795 7.29352 16.5806C7.09453 16.3816 7.12679 15.4847 8.03141 13.8299C8.9048 12.2323 10.3265 10.3953 11.932 8.78981C13.5374 7.18437 15.3744 5.76266 16.9721 4.88928C18.6269 3.9846 19.5238 3.95234 19.7228 4.15133C19.9217 4.35032 19.8894 5.247 18.9847 6.9019ZM9.92761 6.78547C12.2492 4.46383 15.2922 3.16015 17.5255 3.28525C15.4402 4.14311 12.8864 6.1225 11.0755 7.93339C9.26463 9.74428 7.28536 12.298 6.42745 14.3833C6.30229 12.1499 7.60602 9.10706 9.92761 6.78547ZM17.0885 13.9464C14.7669 16.268 11.7239 17.5717 9.49069 17.4465C11.5759 16.5887 14.1297 14.6093 15.9406 12.7984C17.7515 10.9876 19.7308 8.4338 20.5887 6.3485C20.7139 8.58175 19.4102 11.6247 17.0885 13.9464Z" fill="#03502F"/>
</g>
<defs>
<clipPath id="clip0_4603_11369">
<rect width="24" height="24" fill="white"/>
</clipPath>
</defs>
</svg>
