<svg width="24" height="24" viewBox="0 0 24 24" fill="none" xmlns="http://www.w3.org/2000/svg">
<g clip-path="url(#clip0_4603_663)">
<path fill-rule="evenodd" clip-rule="evenodd" d="M18.4442 18.1314C18.1708 17.858 17.7276 17.858 17.4542 18.1314C17.1808 18.4047 17.1808 18.848 17.4542 19.1213L19.0805 20.7477L17.4542 22.374C17.1808 22.6474 17.1808 23.0906 17.4542 23.364C17.7276 23.6373 18.1708 23.6373 18.4441 23.364L20.0705 21.7376L21.6261 23.2932C21.8995 23.5666 22.3427 23.5666 22.6161 23.2932C22.8894 23.0199 22.8894 22.5767 22.6161 22.3033L21.0604 20.7477L22.6161 19.192C22.8894 18.9187 22.8894 18.4755 22.6161 18.2021C22.3427 17.9287 21.8995 17.9287 21.6261 18.2021L20.0705 19.7577L18.4442 18.1314Z" fill="#03502F"/>
<path d="M11.7337 0.225382C9.18929 0.889191 6.54735 2.45265 4.48535 4.51465C2.42328 6.57672 0.859891 9.21859 0.196082 11.763C-0.528845 14.5417 -0.128147 16.8719 1.32445 18.3244C2.77704 19.777 5.10716 20.1777 7.88573 19.4527C10.43 18.7889 13.0719 17.2255 15.134 15.1634C17.196 13.1013 18.7594 10.4595 19.4233 7.91516C20.1482 5.13659 19.7475 2.80641 18.295 1.35389C16.8425 -0.0986411 14.5123 -0.499477 11.7337 0.225382ZM16.3816 5.68228C15.3336 7.59943 13.6275 9.80388 11.701 11.7304C9.77437 13.657 7.56999 15.363 5.65284 16.4111C3.66703 17.4967 2.59102 17.5355 2.35223 17.2967C2.11344 17.0579 2.15215 15.9817 3.23769 13.9959C4.28576 12.0788 5.9918 9.87432 7.91834 7.94778C9.84488 6.02124 12.0493 4.31519 13.9665 3.26713C15.9523 2.18152 17.0285 2.14281 17.2673 2.3816C17.5061 2.62038 17.4673 3.6964 16.3816 5.68228ZM5.51313 5.54257C8.2991 2.7566 11.9506 1.19218 14.6306 1.3423C12.1283 2.37173 9.0637 4.747 6.89063 6.92007C4.71756 9.09314 2.34243 12.1576 1.31294 14.6599C1.16274 11.9799 2.72723 8.32847 5.51313 5.54257ZM14.1062 14.1356C11.3202 16.9216 7.66873 18.486 4.98883 18.3358C7.49113 17.3064 10.5556 14.9312 12.7287 12.7581C14.9018 10.5851 17.277 7.52056 18.3065 5.01819C18.4566 7.6981 16.8922 11.3496 14.1062 14.1356Z" fill="#03502F"/>
</g>
<defs>
<clipPath id="clip0_4603_663">
<rect width="24" height="24" fill="white"/>
</clipPath>
</defs>
</svg>
