<svg width="21" height="20" viewBox="0 0 21 20" fill="none" xmlns="http://www.w3.org/2000/svg">
<path fill-rule="evenodd" clip-rule="evenodd" d="M13.638 0C12.3179 0 9.43047 1.68398 7.85473 5.02082H6.1068C5.92238 5.02082 5.74871 5.10766 5.63805 5.2552L3.93102 7.53125H1.08594C0.762344 7.53125 0.5 7.79359 0.5 8.11719V13.7656C0.5 14.0892 0.762344 14.3516 1.08594 14.3516H4.61758C5.51406 15.1629 6.66406 15.6068 7.88289 15.6068H8.17625C9.79766 18.5271 12.4034 20 13.638 20C15.5036 20 20.5 16.6387 20.5 10C20.5 3.36129 15.5036 0 13.638 0ZM13.638 1.17188C14.1784 1.17188 15.5144 1.7984 16.7543 3.13801H16.7296L17.6679 4.30988H17.6761C17.6971 4.3391 17.718 4.36854 17.7386 4.39818L17.8201 4.5H17.8082C19.8567 7.55578 19.8098 12.7301 17.6761 15.6901H17.6366L16.7211 16.862H16.7544C15.5145 18.2016 14.1784 18.8281 13.638 18.8281C13.0976 18.8281 11.7616 18.2016 10.5217 16.862H10.5527L9.64189 15.6901H9.59996C8.51395 14.1937 7.66199 11.313 8.02086 8.70234C9.71379 8.68539 11.0859 7.30363 11.0859 5.60676C11.0859 5.28316 10.8236 5.02082 10.5 5.02082H9.17043C9.30906 4.76715 9.45336 4.53012 9.59996 4.30988H9.62802L10.5493 3.13801H10.5217C11.7616 1.7984 13.0976 1.17188 13.638 1.17188ZM5.26594 13.3514C5.15605 13.2415 5.00699 13.1797 4.85156 13.1797H1.67188V8.70312H4.22395C4.40836 8.70312 4.58203 8.61629 4.6927 8.46875L6.39973 6.1927H9.82285C9.57441 6.96824 8.84652 7.53125 7.98957 7.53125H7.36195C7.03836 7.53125 6.77602 7.79359 6.77602 8.11719C6.77602 9.17836 5.9127 10.0417 4.85152 10.0417C4.52793 10.0417 4.26559 10.304 4.26559 10.6276C4.26559 10.9512 4.52793 11.2136 4.85152 11.2136C5.58367 11.2136 6.25688 10.9576 6.7875 10.5311C6.84754 11.9986 7.15371 13.297 7.61133 14.4251C6.72465 14.3613 5.90012 13.9858 5.26594 13.3514Z" fill="#03502F"/>
</svg>
