<svg width="19" height="21" viewBox="0 0 19 21" fill="none" xmlns="http://www.w3.org/2000/svg">
<path d="M18.1546 5.17411C18.1437 4.96341 18.0202 4.77485 17.8315 4.68052L9.59422 0.561846C9.42926 0.479385 9.23512 0.479385 9.07016 0.561846L0.83285 4.68052C0.64414 4.77485 0.520702 4.96341 0.509765 5.17411C0.503515 5.29403 0.368046 8.14942 1.34074 11.4645C1.91629 13.426 2.76285 15.1392 3.85691 16.5565C5.23562 18.3425 7.00765 19.6564 9.12379 20.4617C9.19094 20.4872 9.26152 20.5 9.33219 20.5C9.40285 20.5 9.47344 20.4872 9.54058 20.4617C11.6567 19.6564 13.4287 18.3425 14.8075 16.5565C15.9015 15.1392 16.7481 13.426 17.3236 11.4645C18.2963 8.14942 18.1609 5.29403 18.1546 5.17411ZM16.1896 11.167C14.9967 15.2039 12.6902 17.9339 9.33219 19.2849C5.97414 17.9339 3.66762 15.2039 2.47476 11.167C1.73773 8.67274 1.66992 6.40212 1.67336 5.57048L9.33219 1.74103L16.991 5.5704C16.9945 6.40247 16.9266 8.67294 16.1896 11.167Z" fill="#03502F"/>
<path d="M15.4618 6.11614L9.5938 3.18219C9.42884 3.09973 9.2347 3.09977 9.06974 3.18219L3.20185 6.11614C2.99153 6.22125 2.86442 6.44196 2.87907 6.67665C2.94275 7.6986 3.12407 9.26602 3.62646 10.9294C4.63083 14.2551 6.46302 16.5955 9.07208 17.8855C9.15392 17.926 9.24286 17.9462 9.33177 17.9462C9.42067 17.9462 9.50966 17.926 9.59146 17.8855C12.2005 16.5955 14.0327 14.2551 15.0371 10.9294C15.5394 9.26618 15.7208 7.69872 15.7845 6.67668C15.7992 6.442 15.6721 6.22125 15.4618 6.11614ZM13.9153 10.5906C13.0429 13.4795 11.5015 15.5337 9.33181 16.701C7.16208 15.5337 5.62075 13.4795 4.74829 10.5906C4.33743 9.23024 4.15591 7.93465 4.07685 6.98883L9.33181 4.36133L14.5868 6.98883C14.5077 7.93473 14.3261 9.23036 13.9153 10.5906Z" fill="#03502F"/>
</svg>
