<svg width="20" height="16" viewBox="0 0 20 16" fill="none" xmlns="http://www.w3.org/2000/svg">
<path d="M11.8828 14.4348H8.11719C7.79359 14.4348 7.53125 14.6972 7.53125 15.0208C7.53125 15.3443 7.79359 15.6067 8.11719 15.6067H11.8828C12.2064 15.6067 12.4688 15.3443 12.4688 15.0208C12.4688 14.6972 12.2064 14.4348 11.8828 14.4348Z" fill="#03502F"/>
<path d="M11.6479 10.8191C11.7709 10.5722 11.8405 10.294 11.8405 9.99947C11.8405 8.98295 11.0164 8.15889 9.9999 8.15889C9.70525 8.15889 9.42701 8.2285 9.1801 8.35158L6.42018 5.59154C6.19139 5.36271 5.82037 5.36271 5.59154 5.59154C5.36271 5.82033 5.36271 6.19131 5.59154 6.42018L8.35166 9.18041C8.22881 9.42713 8.15936 9.70514 8.15936 9.99947C8.15936 11.016 8.98342 11.8401 9.99994 11.8401C10.2944 11.8401 10.5724 11.7706 10.8192 11.6477L11.4684 12.297C11.6972 12.5258 12.0682 12.5259 12.2971 12.2971C12.5259 12.0683 12.5259 11.6973 12.2971 11.4685L11.6479 10.8191ZM9.9999 10.6682C9.63119 10.6682 9.33119 10.3682 9.33119 9.99951C9.33119 9.6308 9.63115 9.3308 9.9999 9.3308C10.3687 9.3308 10.6686 9.6308 10.6686 9.99951C10.6686 10.3682 10.3686 10.6682 9.9999 10.6682Z" fill="#03502F"/>
<path d="M10 0C4.48598 0 0 4.48598 0 10C0 11.7574 0.463359 13.4866 1.34004 15.0007C1.50199 15.2804 1.85988 15.376 2.1398 15.2146C2.13992 15.2145 3.7707 14.2731 3.7707 14.2731C4.05094 14.1113 4.14695 13.753 3.98516 13.4727C3.82336 13.1925 3.46508 13.0963 3.18477 13.2582L2.07805 13.8972C1.56969 12.8651 1.26871 11.7384 1.19211 10.586H2.46875C2.79234 10.586 3.05469 10.3236 3.05469 10C3.05469 9.67645 2.79234 9.4141 2.46875 9.4141H1.1918C1.26961 8.23262 1.58074 7.11398 2.07973 6.10383L3.1848 6.74184C3.46512 6.90375 3.82348 6.80762 3.9852 6.52738C4.14699 6.24711 4.05098 5.88875 3.77074 5.72699L2.66703 5.08973C3.30941 4.13355 4.13359 3.30938 5.08977 2.66699L5.72695 3.77059C5.88875 4.05086 6.24711 4.14695 6.52734 3.98504C6.80758 3.8232 6.90359 3.46488 6.7418 3.18465L6.10383 2.07969C7.11398 1.58074 8.23266 1.2698 9.41406 1.19187V2.46879C9.41406 2.79238 9.67641 3.05473 10 3.05473C10.3236 3.05473 10.5859 2.79238 10.5859 2.46879V1.19187C11.7673 1.2698 12.886 1.58078 13.8962 2.07969L13.2582 3.18465C13.0964 3.46488 13.1924 3.82324 13.4727 3.98504C13.7529 4.14695 14.1113 4.05086 14.273 3.77059L14.9102 2.66699C15.8664 3.30934 16.6906 4.13352 17.333 5.08973L16.2293 5.72691C15.9491 5.88871 15.853 6.24703 16.0148 6.5273C16.1766 6.80754 16.5349 6.90367 16.8152 6.74176L17.9203 6.10375C18.4193 7.11391 18.7304 8.23254 18.8082 9.41402H17.5312C17.2077 9.41402 16.9453 9.67637 16.9453 9.99996C16.9453 10.3236 17.2077 10.5859 17.5312 10.5859H18.8079C18.7313 11.7383 18.4303 12.865 17.922 13.8971L16.8152 13.2582C16.5349 13.0962 16.1766 13.1924 16.0148 13.4726C15.853 13.7529 15.9491 14.1112 16.2293 14.273C16.2293 14.273 17.8601 15.2144 17.8602 15.2145C18.1402 15.3759 18.498 15.2803 18.66 15.0006C19.5366 13.4866 20 11.7575 20 10C20 4.48598 15.514 0 10 0Z" fill="#03502F"/>
</svg>
