<svg width="25" height="16" viewBox="0 0 25 16" fill="none" xmlns="http://www.w3.org/2000/svg">
<path d="M16.0078 7.81249H14.2375C13.842 7.81249 13.4882 7.57659 13.3361 7.21156L11.7836 3.48558C11.6835 3.24527 11.4368 3.09972 11.178 3.12859C10.3944 3.21562 9.62401 2.99238 9.00842 2.49992C8.39284 2.00745 8.00588 1.30476 7.91881 0.521244C7.8951 0.307845 7.75655 0.124486 7.55772 0.0433919C7.35885 -0.0377019 7.13163 -0.00352222 6.96541 0.132454L4.03026 2.53394C3.53537 2.93882 3.12237 3.42492 2.80268 3.97863L0.736273 7.55785C0.501508 7.96449 0.439125 8.4382 0.560648 8.89171C0.682172 9.34523 0.973031 9.72429 1.37967 9.95906L9.8369 14.8419C10.2817 15.0987 10.7882 15.2344 11.3017 15.2344H18.7422C19.7114 15.2344 20.5 14.4458 20.5 13.4766V12.3047C20.5 9.82769 18.4848 7.81249 16.0078 7.81249ZM19.2753 11.7187H16.5937V9.03718C17.9556 9.28081 19.0317 10.3569 19.2753 11.7187ZM4.77233 3.44093L6.98502 1.63058C7.24159 2.32566 7.68291 2.94023 8.27639 3.41499C9.01467 4.00562 9.91229 4.31909 10.8441 4.31906C10.8499 4.31906 10.8556 4.31906 10.8613 4.31902L11.245 5.2398L10.1685 5.86128C9.8883 6.02308 9.79229 6.38144 9.95409 6.66167C10.0626 6.84964 10.2596 6.95472 10.4621 6.95472C10.5614 6.95472 10.6622 6.92941 10.7545 6.87613L11.6995 6.33054L12.154 7.42132L11.3404 7.89101C11.0602 8.05281 10.9642 8.41117 11.126 8.6914C11.2345 8.87937 11.4314 8.98445 11.6339 8.98445C11.7333 8.98445 11.8341 8.95913 11.9264 8.90585L12.7785 8.41386C13.1672 8.77382 13.6837 8.98437 14.2376 8.98437H15.4219V11.7187H11.4588L5.63866 8.35851C5.96495 7.54663 6.02245 6.65495 5.79592 5.79421C5.57858 4.96824 5.11963 4.24589 4.47901 3.70593C4.57229 3.61339 4.66987 3.52476 4.77233 3.44093ZM3.77116 4.64499C4.64444 5.42011 4.9758 6.65765 4.60827 7.76363L2.63002 6.62148L3.77116 4.64499ZM18.7422 14.0625H11.3017C10.9936 14.0625 10.6897 13.981 10.4228 13.827L1.96561 8.94417C1.83006 8.86593 1.73311 8.73956 1.6926 8.58839C1.65209 8.43722 1.67287 8.27929 1.75116 8.14378L2.04412 7.63636L11.0089 12.8121C11.0979 12.8636 11.199 12.8907 11.3018 12.8907H19.3281V13.4766C19.3281 13.7996 19.0653 14.0625 18.7422 14.0625Z" fill="#03502F"/>
<path d="M23.2453 5.84766L21.6769 8.08753C21.4913 8.35261 21.5557 8.71798 21.8208 8.90358C22.0859 9.08919 22.4512 9.02477 22.6368 8.75969L24.2052 6.51982C24.3908 6.25475 24.3264 5.88938 24.0613 5.70377C23.7963 5.51817 23.4309 5.58259 23.2453 5.84766Z" fill="#03502F"/>
<path d="M16.8177 3.58527L16.5794 6.30924C16.5512 6.6316 16.7897 6.91581 17.112 6.94401C17.4344 6.97222 17.7186 6.73373 17.7468 6.41137L17.9851 3.6874C18.0133 3.36504 17.7748 3.08083 17.4525 3.05263C17.1301 3.02442 16.8459 3.2629 16.8177 3.58527Z" fill="#03502F"/>
<path d="M20.714 2.75773L19.2443 6.79547C19.1337 7.09955 19.2905 7.4358 19.5945 7.54647C19.8986 7.65715 20.2349 7.50035 20.3456 7.19627L21.8152 3.15853C21.9258 2.85445 21.769 2.5182 21.465 2.40753C21.1609 2.29685 20.8247 2.45361 20.714 2.75773Z" fill="#03502F"/>
</svg>
