<svg width="21" height="21" viewBox="0 0 21 21" fill="none" xmlns="http://www.w3.org/2000/svg">
<path d="M19.3427 3.03656C18.4304 2.70453 17.4217 3.17492 17.0896 4.08715L16.3548 6.10602L14.6068 5.46977C15.3093 4.97445 15.7695 4.15742 15.7695 3.23438C15.7695 1.72664 14.5429 0.5 13.0351 0.5C11.5273 0.5 10.3007 1.72664 10.3007 3.23438C10.3007 3.47695 10.333 3.71199 10.3926 3.93598L10.2869 3.8975C9.69992 3.68387 9.06148 3.60668 8.44059 3.67418L5.70539 3.97164C5.03953 4.04406 4.47273 4.48855 4.24363 5.11793L3.40562 7.42047C3.07359 8.33273 3.54395 9.34145 4.45621 9.67348C5.36848 10.0055 6.37719 9.53516 6.70922 8.62285L7.13582 7.45074L8.42809 7.3266L6.09371 13.7403H3.80859C2.83777 13.7403 2.05078 14.5273 2.05078 15.498C2.05078 16.4689 2.83777 17.2559 3.80859 17.2559L7.32453 17.2559C8.06352 17.2559 8.72359 16.7937 8.97633 16.0993L9.57762 14.4473L11.0459 14.9817L9.92449 18.0628C9.50719 19.2094 10.3562 20.4219 11.5763 20.4219C12.3153 20.4219 12.9754 19.9597 13.2281 19.2653L14.9507 14.5324C15.2827 13.6201 14.8124 12.6114 13.9001 12.2794L12.9824 11.9454L14.0512 9.00883L16.8043 10.0109C17.7165 10.3429 18.7252 9.87254 19.0573 8.96027L20.3933 5.28961C20.7253 4.3773 20.2549 3.36859 19.3427 3.03656ZM13.0351 1.67188C13.8966 1.67188 14.5976 2.37281 14.5976 3.23438C14.5976 4.09594 13.8966 4.79688 13.0351 4.79688C12.1735 4.79688 11.4726 4.09594 11.4726 3.23438C11.4726 2.37281 12.1735 1.67188 13.0351 1.67188ZM19.2921 4.88879L17.9561 8.55945C17.8454 8.86355 17.5092 9.02035 17.2051 8.90965L13.9014 7.70723C13.5973 7.59656 13.2611 7.75332 13.1504 8.05742L11.6808 12.0952C11.5702 12.3993 11.7269 12.7355 12.031 12.8462L13.4993 13.3806C13.8034 13.4913 13.9602 13.8275 13.8495 14.1316L12.1269 18.8645C12.0427 19.0959 11.8227 19.25 11.5763 19.25C11.1696 19.25 10.8866 18.8458 11.0257 18.4636L12.3475 14.832C12.4582 14.5279 12.3014 14.1917 11.9973 14.081L9.42781 13.1457C9.12371 13.0351 8.7875 13.1918 8.6768 13.4959L7.87512 15.6986C7.79086 15.93 7.57086 16.0841 7.32449 16.0841L3.80852 16.0841C3.48492 16.0841 3.22258 15.8217 3.22258 15.4981C3.22258 15.1745 3.48492 14.9122 3.80852 14.9122H6.50395C6.75027 14.9122 6.97031 14.7581 7.05453 14.5266L9.8468 6.85496C9.99414 6.45016 9.66898 6.03012 9.24016 6.07129L6.65559 6.31957C6.4307 6.34117 6.23828 6.49012 6.16102 6.70242L5.60797 8.22203C5.4973 8.52613 5.16105 8.68293 4.85695 8.57223C4.55285 8.46156 4.39609 8.12531 4.50676 7.82121L5.3448 5.51867C5.42117 5.30887 5.61012 5.1607 5.83207 5.13656L8.56727 4.83906C9.01074 4.79082 9.46676 4.84598 9.88602 4.99855L16.5046 7.4075C16.8087 7.51816 17.1449 7.36141 17.2556 7.0573L18.1908 4.48785C18.3014 4.18375 18.6377 4.02695 18.9418 4.13766C19.246 4.24844 19.4028 4.58469 19.2921 4.88879Z" fill="#03502F"/>
<path d="M4.875 12.0234C4.875 11.6998 4.61266 11.4375 4.28906 11.4375H1.08594C0.762344 11.4375 0.5 11.6998 0.5 12.0234C0.5 12.347 0.762344 12.6094 1.08594 12.6094H4.28906C4.61266 12.6094 4.875 12.347 4.875 12.0234Z" fill="#03502F"/>
<path d="M1.08594 10.2656H2.33594C2.65953 10.2656 2.92188 10.0033 2.92188 9.67969C2.92188 9.35609 2.65953 9.09375 2.33594 9.09375H1.08594C0.762344 9.09375 0.5 9.35609 0.5 9.67969C0.5 10.0033 0.762344 10.2656 1.08594 10.2656Z" fill="#1C1C1E"/>
</svg>
