<svg width="16" height="16" viewBox="0 0 16 16" fill="none" xmlns="http://www.w3.org/2000/svg">
<path d="M7.97396 12C8.236 12 8.46061 11.9027 8.65527 11.693L14.3604 5.86816C14.5251 5.70345 14.6149 5.49381 14.6149 5.24674C14.6149 4.7526 14.2256 4.35579 13.724 4.35579C13.4769 4.35579 13.2598 4.46061 13.0876 4.62532L7.97396 9.8737L2.86035 4.62533C2.68815 4.46061 2.46354 4.35579 2.22396 4.35579C1.72233 4.35579 1.33301 4.7526 1.33301 5.24674C1.33301 5.49381 1.42285 5.70345 1.58756 5.86816L7.28516 11.693C7.4873 11.9027 7.71191 12 7.97396 12Z" fill="#03502F"/>
</svg>
