<svg width="24" height="24" viewBox="0 0 24 24" fill="none" xmlns="http://www.w3.org/2000/svg">
<path d="M17.6484 2H6.35156C3.95211 2 2 3.95211 2 6.35156V14.5104C2 14.834 2.26234 15.0964 2.58594 15.0964H5.76562V21.4141C5.76562 21.7377 6.02797 22 6.35156 22H17.6484C17.972 22 18.2344 21.7377 18.2344 21.4141V15.0964H21.4141C21.7377 15.0964 22 14.834 22 14.5104V6.35156C22 3.95211 20.0479 2 17.6484 2ZM14.3511 3.17188L12.4736 5.04965C12.2124 5.31063 11.7877 5.31066 11.5269 5.0498L9.64895 3.17188H14.3511ZM3.17188 13.9245V12.5859H5.76562V13.9245H3.17188ZM17.0625 20.8281H6.9375V8.86199C6.9375 8.5384 6.67516 8.27605 6.35156 8.27605C6.02797 8.27605 5.76562 8.5384 5.76562 8.86199V11.4141H3.17188V6.35156C3.17188 4.59828 4.59828 3.17188 6.35156 3.17188H6.97914H6.97945C7.63215 3.17188 8.24586 3.42609 8.70746 3.8877L10.6982 5.87848C11.0571 6.2373 11.5284 6.41668 11.9999 6.41668C12.4714 6.41668 12.943 6.23723 13.3021 5.87832L15.2925 3.8877C15.7541 3.42609 16.3679 3.17188 17.0208 3.17188H17.6484C19.4018 3.17188 20.8281 4.59828 20.8281 6.35156V11.4141H18.2344V8.86199C18.2344 8.5384 17.972 8.27605 17.6484 8.27605C17.3248 8.27605 17.0625 8.5384 17.0625 8.86199V20.8281ZM20.8281 13.9245H18.2344V12.5859H20.8281V13.9245Z" fill="#03502F"/>
</svg>
