<svg width="24" height="24" viewBox="0 0 24 24" fill="none" xmlns="http://www.w3.org/2000/svg">
<path d="M15.7656 15.8074C15.4421 15.8074 15.1797 16.0697 15.1797 16.3933V17.6485C15.1797 17.972 15.4421 18.2344 15.7656 18.2344C16.0893 18.2344 16.3516 17.972 16.3516 17.6485V16.3933C16.3516 16.0697 16.0893 15.8074 15.7656 15.8074Z" fill="#EC0400"/>
<path d="M12.628 15.1797H5.09668C4.77304 15.1797 4.51074 15.4421 4.51074 15.7656C4.51074 16.0893 4.77304 16.3516 5.09668 16.3516H12.628C12.9516 16.3516 13.2139 16.0893 13.2139 15.7656C13.2139 15.4421 12.9516 15.1797 12.628 15.1797Z" fill="#EC0400"/>
<path d="M8.8624 17.6902H5.09668C4.77319 17.6902 4.51074 17.9525 4.51074 18.2761C4.51074 18.5996 4.77319 18.8621 5.09668 18.8621H8.8624C9.18588 18.8621 9.44833 18.5996 9.44833 18.2761C9.44833 17.9525 9.18588 17.6902 8.8624 17.6902Z" fill="#EC0400"/>
<path d="M14.8631 10.0248C14.9776 10.1392 15.1276 10.1964 15.2774 10.1964C15.4274 10.1964 15.5774 10.1392 15.6917 10.0248C15.9206 9.7959 15.9206 9.42496 15.6917 9.19608L14.8039 8.30832C14.5752 8.07944 14.2043 8.07959 13.9754 8.30832C13.7465 8.5372 13.7465 8.90815 13.9754 9.13703L14.8631 10.0248Z" fill="#EC0400"/>
<path d="M20.1589 12.0417H18.9427C19.0486 11.9728 19.149 11.8926 19.2417 11.8L21.4606 9.58102C21.8085 9.23312 22 8.77078 22 8.27884C22 7.7869 21.8083 7.3244 21.4606 6.97726C20.2799 5.79608 18.2039 3.72012 17.023 2.5397C16.6754 2.19165 16.2131 2 15.721 2C15.2292 2 14.7669 2.1915 14.419 2.5394L12.2 4.75833C11.8576 5.10074 11.6786 5.54553 11.6629 5.99521C11.1948 6.01108 10.7573 6.2009 10.4253 6.53354L4.91672 12.0417H3.84113C2.81238 12.0417 2 12.8772 2 13.8828V20.1589C2 21.1876 2.83557 22 3.84113 22H14.5104C14.9813 22 15.4248 21.8247 15.7662 21.5052C16.0953 21.812 16.5364 22 17.0208 22H20.1589C21.1876 22 22 21.1644 22 20.1589V13.8828C22 12.854 21.1644 12.0417 20.1589 12.0417ZM11.2542 7.36179C11.5151 7.10056 11.9387 7.1004 12.2 7.36179C12.4289 7.59052 12.7999 7.59052 13.0287 7.36179C13.2575 7.13306 13.2576 6.76212 13.0287 6.53323C12.7671 6.27155 12.7674 5.84842 13.0287 5.58688L15.2477 3.36795C15.5095 3.10611 15.933 3.10641 16.1942 3.3681C17.3754 4.54898 19.451 6.62463 20.6322 7.80612C20.8962 8.06964 20.891 8.49338 20.6319 8.75232L18.4131 10.9713C18.2866 11.0976 18.1186 11.1673 17.9399 11.1673C17.7613 11.1673 17.5933 11.0976 17.4668 10.9713C17.238 10.7425 16.8671 10.7425 16.6382 10.9713C16.4095 11.2 16.4093 11.5709 16.6382 11.8C16.7113 11.8729 16.7653 11.96 16.798 12.0551C16.4017 12.1031 16.044 12.2774 15.7662 12.5365C15.4244 12.2168 14.981 12.0417 14.5104 12.0417H11.0118L12.1413 10.9122C12.3702 10.6833 12.3702 10.3124 12.1413 10.0835C11.9126 9.85477 11.5415 9.85477 11.3127 10.0835L9.35458 12.0417H6.57413L11.2542 7.36179ZM20.8281 20.1589C20.8281 20.5281 20.5291 20.8281 20.1589 20.8281H17.0208C16.6518 20.8281 16.3515 20.5278 16.3515 20.1589C16.3515 19.8352 16.0892 19.5729 15.7656 19.5729C15.4421 19.5729 15.1796 19.8352 15.1796 20.1589C15.1796 20.5231 14.8851 20.8281 14.5104 20.8281H3.84113C3.47186 20.8281 3.17188 20.5291 3.17188 20.1589V13.8828C3.17188 13.5134 3.47095 13.2135 3.84113 13.2135H14.5104C14.8819 13.2135 15.1798 13.5149 15.1798 13.8828C15.1798 14.2064 15.4421 14.4687 15.7657 14.4687C16.0892 14.4687 16.3517 14.2064 16.3517 13.8828C16.3517 13.5138 16.6518 13.2135 17.0209 13.2135H20.1589C20.5283 13.2135 20.8281 13.5126 20.8281 13.8828V20.1589Z" fill="#EC0400"/>
</svg>
