<svg width="24" height="24" viewBox="0 0 24 24" fill="none" xmlns="http://www.w3.org/2000/svg">
<path d="M21.7423 17.4741L13.5387 3.86895C13.2155 3.33297 12.6259 3 12 3C11.3741 3 10.7845 3.33297 10.4613 3.86898L2.25763 17.4741C1.92361 18.0281 1.91373 18.7222 2.23181 19.2854C2.54998 19.8487 3.14943 20.1986 3.79631 20.1986H20.2037C20.8505 20.1986 21.45 19.8487 21.7682 19.2854C22.0863 18.7221 22.0764 18.028 21.7423 17.4741ZM20.6344 18.6451C20.5468 18.8002 20.3817 18.8965 20.2037 18.8965H3.79631C3.61822 18.8965 3.45318 18.8002 3.36564 18.6452C3.27806 18.4901 3.2808 18.299 3.37271 18.1465L11.5764 4.54137C11.6654 4.39383 11.8277 4.30215 12 4.30215C12.1723 4.30215 12.3346 4.39383 12.4236 4.54137L20.6272 18.1465C20.7192 18.299 20.7219 18.4901 20.6344 18.6451Z" fill="#EC0400"/>
<path d="M12.0059 8.35742C11.5106 8.35742 11.124 8.6232 11.124 9.09438C11.124 10.532 11.2931 12.5977 11.2931 14.0354C11.2932 14.4098 11.6194 14.5669 12.0059 14.5669C12.2959 14.5669 12.7066 14.4098 12.7066 14.0354C12.7066 12.5978 12.8757 10.532 12.8757 9.09438C12.8757 8.62324 12.4771 8.35742 12.0059 8.35742Z" fill="#EC0400"/>
<path d="M12.0181 15.4004C11.4866 15.4004 11.0879 15.8232 11.0879 16.3306C11.0879 16.8259 11.4866 17.2609 12.0181 17.2609C12.5134 17.2609 12.9363 16.8259 12.9363 16.3306C12.9363 15.8232 12.5134 15.4004 12.0181 15.4004Z" fill="#EC0400"/>
</svg>
